HIERARCHY
ROOT Hips
{
 OFFSET 0.000000 0.000000 0.000000
 CHANNELS 6 Xposition Yposition Zposition Yrotation Xrotation Zrotation
 JOINT Chest
 {
  OFFSET 0.000000 9.585900 0.002600
  CHANNELS 3 Yrotation Xrotation Zrotation
  JOINT Chest2
  {
   OFFSET 0.000000 9.601200 -0.005300
   CHANNELS 3 Yrotation Xrotation Zrotation
   JOINT Chest3
   {
    OFFSET 0.000000 9.561800 0.000000
    CHANNELS 3 Yrotation Xrotation Zrotation
    JOINT Chest4
    {
     OFFSET 0.000000 9.552100 0.000000
     CHANNELS 3 Yrotation Xrotation Zrotation
     JOINT Neck
     {
      OFFSET 0.000000 14.453000 0.000000
      CHANNELS 3 Yrotation Xrotation Zrotation
      JOINT Head
      {
       OFFSET 0.000000 8.936500 -0.011300
       CHANNELS 3 Yrotation Xrotation Zrotation
       End Site
       {
        OFFSET 0.000000 17.073600 -0.006000
       }
      }
     }
     JOINT RightCollar
     {
      OFFSET -2.921100 9.558500 0.000000
      CHANNELS 3 Yrotation Xrotation Zrotation
      JOINT RightShoulder
      {
       OFFSET -13.519700 0.000000 0.000000
       CHANNELS 3 Yrotation Xrotation Zrotation
       JOINT RightElbow
       {
        OFFSET 0.000000 -29.696600 0.000000
        CHANNELS 3 Yrotation Xrotation Zrotation
        JOINT RightWrist
        {
         OFFSET 0.000000 -24.004700 0.000000
         CHANNELS 3 Yrotation Xrotation Zrotation
         End Site
         {
          OFFSET 0.000000 -17.728500 0.000000
         }
        }
       }
      }
     }
     JOINT LeftCollar
     {
      OFFSET 2.921100 9.558500 0.000000
      CHANNELS 3 Yrotation Xrotation Zrotation
      JOINT LeftShoulder
      {
       OFFSET 13.519700 0.000000 0.000000
       CHANNELS 3 Yrotation Xrotation Zrotation
       JOINT LeftElbow
       {
        OFFSET 0.000000 -29.696600 0.000000
        CHANNELS 3 Yrotation Xrotation Zrotation
        JOINT LeftWrist
        {
         OFFSET 0.000000 -24.004700 0.000000
         CHANNELS 3 Yrotation Xrotation Zrotation
         End Site
         {
          OFFSET 0.000000 -17.728500 0.000000
         }
        }
       }
      }
     }
    }
   }
  }
 }
 JOINT RightHip
 {
  OFFSET -7.771700 -0.012900 -0.001300
  CHANNELS 3 Yrotation Xrotation Zrotation
  JOINT RightKnee
  {
   OFFSET 0.000000 -40.869800 0.001200
   CHANNELS 3 Yrotation Xrotation Zrotation
   JOINT RightAnkle
   {
    OFFSET 0.000000 -39.717900 0.002100
    CHANNELS 3 Yrotation Xrotation Zrotation
    JOINT RightToe
    {
     OFFSET 0.000000 -4.965400 11.033500
     CHANNELS 3 Yrotation Xrotation Zrotation
     End Site
     {
      OFFSET 0.000000 -1.423100 5.872300
     }
    }
   }
  }
 }
 JOINT LeftHip
 {
  OFFSET 7.771700 -0.012900 -0.001300
  CHANNELS 3 Yrotation Xrotation Zrotation
  JOINT LeftKnee
  {
   OFFSET 0.000000 -40.869800 0.001200
   CHANNELS 3 Yrotation Xrotation Zrotation
   JOINT LeftAnkle
   {
    OFFSET 0.000000 -39.717900 0.002100
    CHANNELS 3 Yrotation Xrotation Zrotation
    JOINT LeftToe
    {
     OFFSET 0.000000 -4.965400 11.033500
     CHANNELS 3 Yrotation Xrotation Zrotation
     End Site
     {
      OFFSET 0.000000 -1.423100 5.872300
     }
    }
   }
  }
 }
}
MOTION
Frames: 15
Frame Time: 0.008333
-8.810215 57.796617 43.640538 -177.315844 -41.825438 -2.780544 -0.969728 26.827451 3.844313 -0.272705 4.678363 0.508759 -0.413719 7.401542 0.796257 -0.953678 22.028116 2.289596 2.810027 13.044272 -0.984577 5.680754 -11.484586 -3.029162 3.946299 -3.075474 -1.992413 19.554747 -22.156333 -24.021731 -165.140718 -79.910353 -158.501623 19.127122 -18.188450 -57.061016 -7.795518 -3.900744 -2.465463 -4.896167 -15.901047 4.897275 -155.583134 -74.144953 126.477702 -7.692560 -16.593689 36.854523 6.272245 -30.641742 -5.914294 -6.106371 69.108062 -6.206735 4.691088 11.657459 8.829615 -0.262644 -8.305141 -0.025167 -11.417027 -36.844282 -0.781964 28.096208 63.926099 23.994012 -7.265461 36.127183 4.284516 0.689669 -20.636867 -7.050602
-8.805367 57.789829 43.646865 -177.291595 -41.800726 -2.808854 -0.981746 26.808536 3.859564 -0.272709 4.679339 0.509205 -0.413468 7.401318 0.795792 -0.953034 22.027970 2.288141 2.792290 13.034125 -0.996555 5.649223 -11.518752 -3.048522 3.986653 -3.086517 -2.014475 19.543142 -22.148932 -24.031676 -165.055188 -79.922845 -158.602687 19.135310 -18.195048 -57.080045 -7.799937 -3.909316 -2.463133 -4.915459 -15.905071 4.918562 -155.591932 -74.159091 126.477219 -7.693298 -16.586640 36.870156 6.227079 -30.669104 -5.884597 -6.112358 69.101625 -6.233156 4.693271 11.650473 8.835571 -0.265954 -8.292482 -0.028975 -11.547395 -36.885001 -0.700691 28.131052 63.937999 23.963784 -7.262182 36.188728 4.275149 0.703197 -20.709604 -7.058443
-8.801438 57.785632 43.649761 -177.280763 -41.802058 -2.822461 -0.986430 26.815591 3.866964 -0.272354 4.676096 0.509917 -0.413497 7.401048 0.795466 -0.953311 22.027689 2.287048 2.773622 13.021356 -1.011942 5.620933 -11.545791 -3.065430 3.996381 -3.090095 -2.018721 19.537229 -22.147000 -24.031726 -165.045084 -79.928035 -158.606990 19.114069 -18.216552 -57.054085 -7.803916 -3.914795 -2.461402 -4.924545 -15.905679 4.933174 -155.609390 -74.169636 126.485590 -7.691139 -16.583210 36.877835 6.194704 -30.669333 -5.858981 -6.133485 69.095490 -6.274152 4.702038 11.646539 8.844499 -0.268577 -8.284811 -0.035167 -11.609010 -36.891163 -0.663296 28.153312 63.945694 23.952157 -7.254926 36.210895 4.281257 0.702657 -20.753219 -7.066687
-8.799651 57.779678 43.654295 -177.261124 -41.786924 -2.829152 -1.004224 26.804366 3.864852 -0.272900 4.674238 0.507448 -0.413772 7.400804 0.795114 -0.954500 22.027386 2.285829 2.755244 13.007815 -1.025478 5.593574 -11.567614 -3.084515 4.005469 -3.093818 -2.023681 19.545981 -22.142357 -24.048002 -164.986106 -79.933840 -158.673931 19.108358 -18.229844 -57.050565 -7.819518 -3.925562 -2.453207 -4.909776 -15.898495 4.929325 -155.638996 -74.165371 126.478177 -7.690093 -16.579198 36.892364 6.161666 -30.686116 -5.853796 -6.161994 69.090328 -6.319777 4.716876 11.642706 8.848284 -0.271202 -8.276729 -0.038632 -11.668897 -36.913356 -0.640059 28.070283 63.959784 23.849014 -7.213255 36.246002 4.268331 0.704269 -20.797859 -7.063318
-8.797112 57.775190 43.657246 -177.257394 -41.780896 -2.832118 -1.007990 26.804070 3.866670 -0.272709 4.673991 0.507454 -0.413483 7.400340 0.794903 -0.950874 22.030483 2.289714 2.717748 12.982594 -1.052894 5.600892 -11.568014 -3.081473 4.030053 -3.117896 -2.056399 19.528079 -22.135488 -24.037809 -164.888233 -79.944271 -158.764505 19.118962 -18.230784 -57.071770 -7.827471 -3.938349 -2.453992 -4.922776 -15.899444 4.940730 -155.652485 -74.175249 126.480217 -7.678481 -16.575788 36.878384 6.136182 -30.697068 -5.839106 -6.155903 69.089170 -6.332705 4.717614 11.644995 8.850004 -0.273717 -8.275303 -0.040954 -11.747198 -36.928179 -0.597879 28.118132 63.966561 23.844319 -7.197341 36.263513 4.288341 0.703358 -20.828903 -7.082445
-8.796364 57.771095 43.659957 -177.252958 -41.772260 -2.827705 -1.012543 26.808626 3.862683 -0.272965 4.668382 0.508682 -0.413087 7.400287 0.795220 -0.952528 22.023733 2.288009 2.707288 12.976802 -1.059722 5.585155 -11.579143 -3.091558 4.039478 -3.127551 -2.071023 19.529662 -22.136291 -24.049892 -164.741244 -79.957827 -158.896569 19.133671 -18.230287 -57.099200 -7.833757 -3.945806 -2.453682 -4.944857 -15.894530 4.966953 -155.704579 -74.198292 126.488560 -7.695448 -16.567127 36.927309 6.131946 -30.710971 -5.844819 -6.150614 69.091347 -6.332507 4.717620 11.658885 8.852762 -0.274678 -8.285600 -0.043654 -11.797239 -36.941856 -0.584220 28.155787 63.965035 23.849898 -7.180737 36.268029 4.315265 0.704267 -20.835361 -7.109786
-8.795984 57.768386 43.661541 -177.261173 -41.768079 -2.816153 -1.009060 26.809080 3.854328 -0.272808 4.666808 0.510322 -0.412348 7.400609 0.794100 -0.950466 22.022726 2.289511 2.697737 12.968502 -1.063774 5.501493 -11.633391 -3.129694 4.047091 -3.139195 -2.078948 19.536924 -22.137840 -24.068593 -164.596237 -79.979354 -159.030234 19.129760 -18.243332 -57.095823 -7.849016 -3.957778 -2.443267 -4.941965 -15.892338 4.972890 -155.730824 -74.218897 126.491963 -7.706574 -16.563138 36.950302 6.137452 -30.718040 -5.848625 -6.146173 69.091069 -6.331933 4.716217 11.664844 8.851995 -0.273615 -8.288364 -0.043556 -11.802768 -36.945275 -0.592872 28.145573 63.966725 23.838097 -7.143583 36.250541 4.336469 0.688850 -20.840753 -7.123508
-8.796656 57.767276 43.661803 -177.272417 -41.769476 -2.799764 -1.006148 26.815655 3.842964 -0.269653 4.665425 0.508831 -0.415642 7.402409 0.794972 -0.951664 22.022148 2.289083 2.664014 12.948849 -1.084198 5.512547 -11.635103 -3.125008 4.057853 -3.150621 -2.083316 19.550756 -22.140148 -24.093432 -164.434354 -79.996627 -159.181408 19.144223 -18.241388 -57.121740 -7.870343 -3.977163 -2.431246 -4.931223 -15.888791 4.979659 -155.753703 -74.242654 126.497155 -7.717132 -16.557764 36.970409 6.150939 -30.719076 -5.859818 -6.134782 69.093920 -6.318735 4.712287 11.671152 8.848734 -0.271908 -8.293609 -0.043089 -11.774088 -36.939652 -0.622834 28.159575 63.956724 23.870237 -7.146787 36.225383 4.338910 0.685604 -20.837099 -7.130874
-8.797994 57.767450 43.661136 -177.290690 -41.773411 -2.777839 -0.998406 26.821786 3.831628 -0.270296 4.668565 0.507027 -0.419286 7.401755 0.796918 -0.956410 22.020759 2.285862 2.654540 12.941546 -1.091913 5.507003 -11.644591 -3.131725 4.069911 -3.155882 -2.086625 19.574737 -22.154726 -24.144302 -164.195026 -80.013862 -159.418773 19.144105 -18.240399 -57.126044 -7.880347 -3.990384 -2.425988 -4.918258 -15.883495 4.979994 -155.764955 -74.253784 126.491378 -7.703398 -16.548131 36.959195 6.193775 -30.716708 -5.887521 -6.120101 69.097984 -6.280012 4.706921 11.686533 8.844689 -0.265577 -8.307783 -0.044217 -11.716680 -36.927433 -0.664476 28.164023 63.942612 23.906867 -7.166888 36.194981 4.331206 0.682344 -20.827712 -7.129826
-8.803037 57.770470 43.657632 -177.319890 -41.795940 -2.729861 -0.991553 26.845631 3.799682 -0.273966 4.671303 0.507463 -0.417663 7.398844 0.795673 -0.958454 22.019457 2.283965 2.636096 12.935439 -1.099587 5.487609 -11.661124 -3.147778 4.082787 -3.166505 -2.094084 19.574684 -22.155017 -24.159266 -164.146322 -80.023853 -159.434514 19.150135 -18.233076 -57.144478 -7.890054 -3.996668 -2.421876 -4.911584 -15.882718 4.981908 -155.767924 -74.260857 126.494007 -7.694827 -16.541445 36.952624 6.250143 -30.693164 -5.931670 -6.074076 69.105880 -6.221075 4.696726 11.693731 8.840401 -0.269161 -8.319146 -0.038935 -11.555095 -36.882779 -0.777687 28.090669 63.913401 23.923118 -7.209279 36.141056 4.306044 0.698600 -20.792082 -7.122807
-8.804894 57.772039 43.656216 -177.336137 -41.796352 -2.711357 -0.992735 26.854500 3.784991 -0.274603 4.670833 0.507261 -0.409832 7.393346 0.797979 -0.962399 22.022227 2.285095 2.613549 12.922176 -1.113831 5.468398 -11.675221 -3.158157 4.110315 -3.194847 -2.120703 19.551444 -22.149042 -24.153666 -164.062332 -80.031489 -159.507428 19.149203 -18.230782 -57.159087 -7.889315 -4.004095 -2.423787 -4.945606 -15.905491 5.011775 -155.782708 -74.304992 126.518854 -7.700652 -16.533949 36.963229 6.287671 -30.691476 -5.953908 -6.064301 69.108594 -6.192322 4.695044 11.699691 8.835867 -0.270729 -8.326508 -0.035669 -11.489497 -36.870461 -0.818082 28.074510 63.901271 23.944141 -7.229092 36.102437 4.296462 0.706489 -20.772514 -7.121140
-8.805981 57.773086 43.655616 -177.335812 -41.785856 -2.710406 -0.997917 26.846890 3.780163 -0.274708 4.669832 0.507141 -0.413028 7.395413 0.795886 -0.968147 22.018244 2.282830 2.606362 12.912633 -1.122081 5.398823 -11.714722 -3.184692 4.128133 -3.199905 -2.125298 19.548377 -22.150394 -24.158659 -164.039665 -80.036603 -159.520187 19.145512 -18.239154 -57.152429 -7.894871 -4.016465 -2.417925 -4.938539 -15.904557 5.022359 -155.877388 -74.341566 126.563626 -7.732344 -16.519619 37.007653 6.309619 -30.699467 -5.969018 -6.071614 69.109087 -6.179773 4.697441 11.705816 8.833309 -0.267520 -8.333682 -0.034713 -11.474638 -36.875018 -0.827777 28.069164 63.897148 23.951227 -7.227874 36.081495 4.290329 0.720388 -20.779252 -7.120279
-8.809154 57.775851 43.653153 -177.355353 -41.788734 -2.686089 -0.990809 26.851867 3.765191 -0.273981 4.668194 0.508132 -0.417094 7.392994 0.794317 -0.965263 22.017915 2.283869 2.590131 12.901675 -1.130960 5.374646 -11.732057 -3.195881 4.134161 -3.204556 -2.130292 19.546839 -22.151340 -24.163625 -164.019072 -80.042187 -159.533855 19.141504 -18.247939 -57.145553 -7.907467 -4.030917 -2.411728 -4.931592 -15.902577 5.030101 -155.925416 -74.366765 126.599993 -7.734081 -16.518947 37.011734 6.349211 -30.694430 -5.991391 -6.065559 69.112140 -6.159470 4.687425 11.709787 8.830998 -0.258621 -8.339217 -0.033594 -11.388693 -36.853735 -0.883298 28.055120 63.876340 23.984990 -7.254245 36.022602 4.265271 0.717328 -20.734204 -7.101067
-8.814379 57.779632 43.649478 -177.377351 -41.800576 -2.649516 -0.985814 26.864274 3.739124 -0.274756 4.667265 0.506754 -0.415440 7.392483 0.796602 -0.965862 22.017371 2.283867 2.572194 12.886664 -1.140449 5.351244 -11.748715 -3.206505 4.158332 -3.235019 -2.150883 19.523925 -22.146746 -24.174650 -163.831092 -80.050268 -159.719295 19.137781 -18.250217 -57.147597 -7.928524 -4.043744 -2.401724 -4.913525 -15.905973 5.031343 -155.947249 -74.387362 126.617776 -7.727462 -16.524581 37.005895 6.391971 -30.678187 -6.024062 -6.067197 69.113910 -6.148711 4.677074 11.711329 8.825179 -0.250314 -8.342493 -0.030080 -11.277580 -36.823443 -0.966369 28.025390 63.844654 24.013833 -7.279851 35.995245 4.255502 0.723503 -20.712103 -7.098266
-8.815066 57.780891 43.648578 -177.377978 -41.789358 -2.654153 -0.984962 26.854719 3.742153 -0.275575 4.665276 0.505204 -0.416739 7.390463 0.796479 -0.966605 22.013184 2.284932 2.558772 12.875285 -1.150179 5.327880 -11.764533 -3.215958 4.168096 -3.241005 -2.159038 19.519764 -22.148848 -24.177194 -163.760183 -80.056490 -159.787036 19.141841 -18.249816 -57.144544 -7.933054 -4.052458 -2.396561 -4.902977 -15.898843 5.028752 -155.964979 -74.397828 126.628032 -7.724393 -16.529363 37.003485 6.397799 -30.686614 -6.022395 -6.076214 69.110834 -6.150330 4.674779 11.713492 8.823705 -0.247594 -8.343959 -0.029443 -11.274346 -36.830473 -0.964105 28.025358 63.840689 24.021093 -7.278549 35.990840 4.247931 0.727852 -20.729285 -7.093001
